<svg width="21" height="19" viewBox="0 0 21 19" fill="none" xmlns="http://www.w3.org/2000/svg">
<path d="M19.9736 19C19.7128 19 19.4521 18.9015 19.2346 18.7244L13.0369 13.1086C12.6241 12.7345 12.6241 12.1434 13.0369 11.7885C13.4496 11.4337 14.1019 11.4145 14.4935 11.7885L20.6904 17.4044C21.1032 17.7785 21.1032 18.3696 20.6904 18.7244C20.4951 18.9015 20.2343 19 19.9736 19Z" fill="#0000FF"/>
<path d="M8.27273 14.9697C3.70096 14.9697 0 11.6212 0 7.48485C0 3.34848 3.70096 0 8.27273 0C12.8445 0 16.5455 3.34848 16.5455 7.48485C16.5455 11.6212 12.8445 14.9697 8.27273 14.9697ZM8.27273 1.87121C4.855 1.87121 2.06818 4.39262 2.06818 7.48485C2.06818 10.5771 4.855 13.0985 8.27273 13.0985C11.6905 13.0985 14.4773 10.5771 14.4773 7.48485C14.4773 4.39262 11.6905 1.87121 8.27273 1.87121Z" fill="#0000FF"/>
</svg>
