<svg width="34" height="33" viewBox="0 0 34 33" fill="none" xmlns="http://www.w3.org/2000/svg">
<path fill-rule="evenodd" clip-rule="evenodd" d="M15.3112 0.0332059C15.1651 0.0462203 14.6862 0.111674 14.247 0.178714C8.91245 0.992911 4.23207 4.28538 1.79631 8.93719C0.550785 11.316 0.00927734 13.5289 0.00927734 16.2404C0.00927734 18.9584 0.552113 21.1715 1.80269 23.5513C3.98936 27.7129 8.02255 30.8423 12.6791 31.9905C14.2839 32.3862 14.9296 32.4567 16.9708 32.4588C19.0061 32.461 19.5211 32.4088 21.1199 32.0383C24.8705 31.1692 28.3801 28.9404 30.737 25.9311C32.4345 23.7636 33.5479 21.1101 33.8967 18.4008C34.0713 17.0455 34.0164 14.778 33.7927 14.102C33.7052 13.8375 33.2682 13.4642 32.9903 13.4164C32.8694 13.3957 29.5419 13.3869 25.5958 13.397L18.4209 13.4153L18.1771 13.5932C17.7265 13.9219 17.7342 13.8695 17.7342 16.5896C17.7342 19.3096 17.7265 19.2573 18.177 19.5859L18.4209 19.7638L22.4922 19.7811C24.7314 19.7906 26.5635 19.8223 26.5635 19.8517C26.5635 19.956 26.1623 20.7489 25.8715 21.2193C24.0084 24.2329 20.6379 26.0806 17.004 26.0806C11.3355 26.0806 6.71423 21.6612 6.71423 16.2404C6.71423 10.8176 11.3334 6.40019 17.004 6.40019C19.1595 6.40019 21.3206 7.06634 22.9787 8.24177C23.3256 8.48765 23.7055 8.73099 23.823 8.78247C24.0918 8.9003 24.4472 8.90221 24.7235 8.7873C24.9968 8.6736 28.3931 5.4116 28.4856 5.17398C28.6841 4.66368 28.5183 4.25427 27.9104 3.75401C25.4927 1.764 22.1613 0.406118 18.8296 0.0526323C18.2714 -0.0065993 15.9045 -0.0196772 15.3112 0.0332059Z" fill="#0000FF"/>
<path fill-rule="evenodd" clip-rule="evenodd" d="M15.311 0.0332059C14.0514 0.145384 12.3599 0.52147 11.0679 0.976468C5.68254 2.87309 1.50822 7.49589 0.351313 12.8445C-0.117104 15.0097 -0.117104 17.4711 0.351313 19.6363C0.971288 22.5024 2.55399 25.351 4.72221 27.5027C7.32519 30.086 10.5124 31.6919 14.2801 32.3185C15.4226 32.5085 18.4287 32.524 19.5597 32.3457C23.2503 31.764 26.5075 30.1867 29.089 27.7312C30.4765 26.4114 31.4301 25.1471 32.2733 23.5094C33.0938 21.9158 33.4969 20.7306 33.8164 18.9722C33.9393 18.296 33.9613 17.929 33.9632 16.5261C33.9658 14.5958 33.9005 14.1329 33.5757 13.7791C33.1912 13.3603 33.6499 13.3834 25.7523 13.3846L18.5639 13.3857L18.3046 13.5274C18.162 13.6054 17.9828 13.7499 17.9063 13.8484C17.7716 14.0221 17.7667 14.104 17.7485 16.5297C17.7276 19.3151 17.7187 19.2516 18.1769 19.5859L18.4207 19.7638L22.4921 19.7811C25.6559 19.7945 26.5633 19.8158 26.5629 19.8763C26.562 20.0214 25.914 21.1892 25.5421 21.716C22.6605 25.7982 17.1254 27.2368 12.5229 25.0997C10.4782 24.1504 8.75826 22.5049 7.74767 20.5312C5.24745 15.6486 7.42298 9.72675 12.5892 7.35254C15.9361 5.81448 20.0515 6.1667 22.9786 8.24177C23.3255 8.48765 23.7054 8.73099 23.8229 8.78247C24.0917 8.9003 24.447 8.90221 24.7233 8.7873C24.9966 8.6736 28.393 5.4116 28.4855 5.17398C28.684 4.66369 28.5181 4.25427 27.9103 3.75401C25.4925 1.764 22.1612 0.406118 18.8295 0.0526323C18.2713 -0.00659931 15.9044 -0.0196772 15.311 0.0332059Z" fill="#167EE6"/>
<path fill-rule="evenodd" clip-rule="evenodd" d="M15.311 0.0332059C14.0514 0.145384 12.3599 0.52147 11.0679 0.976468C5.68254 2.87309 1.50821 7.49588 0.351313 12.8445C-0.117104 15.0097 -0.117104 17.4711 0.351313 19.6363C1.22973 23.6972 3.91237 27.4668 7.57712 29.7898C9.70067 31.1358 11.8334 31.9289 14.448 32.3447C15.5761 32.5241 18.5811 32.5092 19.7277 32.3185C20.8641 32.1295 21.9562 31.8528 22.9272 31.5077C23.9449 31.1461 25.5146 30.4082 25.4879 30.3041C25.4769 30.2615 24.7256 28.9982 23.8181 27.4966L22.1681 24.7666L21.5278 25.0716C20.6619 25.4841 19.6435 25.7994 18.655 25.961C17.5293 26.145 15.8581 26.1052 14.8089 25.8693C10.03 24.7951 6.71411 20.8508 6.71411 16.2404C6.71411 10.8176 11.3333 6.40019 17.0039 6.40019C19.1594 6.40019 21.3205 7.06634 22.9786 8.24177C23.3255 8.48765 23.7054 8.73099 23.8229 8.78247C24.0917 8.9003 24.447 8.90221 24.7233 8.7873C24.9966 8.6736 28.393 5.4116 28.4855 5.17398C28.684 4.66368 28.5181 4.25427 27.9103 3.75401C25.4925 1.764 22.1612 0.406118 18.8295 0.0526323C18.2713 -0.0065993 15.9044 -0.0196772 15.311 0.0332059Z" fill="#12B347"/>
<path fill-rule="evenodd" clip-rule="evenodd" d="M15.3112 0.0332059C15.1651 0.0462203 14.6862 0.111674 14.247 0.178714C8.91245 0.992911 4.23207 4.28538 1.79631 8.93719C0.550785 11.316 0.00927734 13.5289 0.00927734 16.2404C0.00927734 18.9739 0.546337 21.1513 1.82214 23.5907C2.04639 24.0195 2.2638 24.3623 2.30529 24.3525C2.34678 24.3427 3.66547 23.6257 5.23568 22.7592L8.09073 21.1837L7.77049 20.569C5.23237 15.6965 7.40616 9.73456 12.5894 7.35253C15.9362 5.81448 20.0516 6.1667 22.9787 8.24177C23.3256 8.48765 23.7055 8.73099 23.823 8.78247C24.0918 8.9003 24.4472 8.90221 24.7235 8.7873C24.9968 8.6736 28.3931 5.4116 28.4856 5.17398C28.6841 4.66368 28.5183 4.25427 27.9104 3.75401C25.4927 1.764 22.1613 0.406118 18.8296 0.0526323C18.2714 -0.0065993 15.9045 -0.0196772 15.3112 0.0332059ZM9.43604 22.9381C9.43604 22.9555 9.45097 22.9698 9.46923 22.9698C9.48748 22.9698 9.50242 22.9555 9.50242 22.9381C9.50242 22.9206 9.48748 22.9063 9.46923 22.9063C9.45097 22.9063 9.43604 22.9206 9.43604 22.9381ZM21.8501 24.9061C21.8501 24.9236 21.8651 24.9379 21.8833 24.9379C21.9016 24.9379 21.9165 24.9236 21.9165 24.9061C21.9165 24.8887 21.9016 24.8744 21.8833 24.8744C21.8651 24.8744 21.8501 24.8887 21.8501 24.9061ZM13.22 25.414C13.22 25.4315 13.235 25.4457 13.2532 25.4457C13.2715 25.4457 13.2864 25.4315 13.2864 25.414C13.2864 25.3965 13.2715 25.3822 13.2532 25.3822C13.235 25.3822 13.22 25.3965 13.22 25.414ZM4.19157 27.0011C4.19157 27.0186 4.20651 27.0329 4.22476 27.0329C4.24302 27.0329 4.25796 27.0186 4.25796 27.0011C4.25796 26.9837 4.24302 26.9694 4.22476 26.9694C4.20651 26.9694 4.19157 26.9837 4.19157 27.0011ZM5.71844 28.4613C5.71844 28.4787 5.73338 28.493 5.75163 28.493C5.76989 28.493 5.78483 28.4787 5.78483 28.4613C5.78483 28.4438 5.76989 28.4295 5.75163 28.4295C5.73338 28.4295 5.71844 28.4438 5.71844 28.4613ZM6.51507 29.0961C6.51507 29.1136 6.53001 29.1279 6.54826 29.1279C6.56652 29.1279 6.58145 29.1136 6.58145 29.0961C6.58145 29.0787 6.56652 29.0644 6.54826 29.0644C6.53001 29.0644 6.51507 29.0787 6.51507 29.0961ZM6.78061 29.2866C6.78061 29.304 6.79555 29.3183 6.8138 29.3183C6.83206 29.3183 6.847 29.304 6.847 29.2866C6.847 29.2691 6.83206 29.2548 6.8138 29.2548C6.79555 29.2548 6.78061 29.2691 6.78061 29.2866ZM8.37387 30.3023C8.37387 30.3198 8.3888 30.3341 8.40706 30.3341C8.42531 30.3341 8.44025 30.3198 8.44025 30.3023C8.44025 30.2849 8.42531 30.2706 8.40706 30.2706C8.3888 30.2706 8.37387 30.2849 8.37387 30.3023ZM8.97134 30.6198C8.97134 30.6372 8.98627 30.6515 9.00453 30.6515C9.02279 30.6515 9.03772 30.6372 9.03772 30.6198C9.03772 30.6023 9.02279 30.588 9.00453 30.588C8.98627 30.588 8.97134 30.6023 8.97134 30.6198Z" fill="#00FF00"/>
<path fill-rule="evenodd" clip-rule="evenodd" d="M15.3112 0.0332059C15.1651 0.0462203 14.6862 0.111674 14.247 0.178714C8.91245 0.992911 4.23207 4.28538 1.79631 8.93719C0.550785 11.316 0.00927734 13.5289 0.00927734 16.2404C0.00927734 18.9739 0.546337 21.1513 1.82214 23.5907C2.04639 24.0195 2.2638 24.3623 2.30529 24.3525C2.34678 24.3427 3.66547 23.6257 5.23568 22.7592L8.09073 21.1837L7.77049 20.569C5.23237 15.6965 7.40616 9.73456 12.5894 7.35253C15.9362 5.81448 20.0516 6.1667 22.9787 8.24177C23.3256 8.48765 23.7055 8.73099 23.823 8.78247C24.0918 8.9003 24.4472 8.90221 24.7235 8.7873C24.9968 8.6736 28.3931 5.4116 28.4856 5.17398C28.6841 4.66368 28.5183 4.25427 27.9104 3.75401C25.4927 1.764 22.1613 0.406118 18.8296 0.0526323C18.2714 -0.0065993 15.9045 -0.0196772 15.3112 0.0332059Z" fill="#83C424"/>
<path fill-rule="evenodd" clip-rule="evenodd" d="M15.3112 0.0332059C15.1651 0.0462203 14.6862 0.111674 14.247 0.178714C8.91245 0.992911 4.23207 4.28538 1.79631 8.93719C0.550785 11.316 0.00927734 13.5289 0.00927734 16.2404C0.00927734 18.9669 0.550187 21.1653 1.81337 23.5729C2.03324 23.9919 2.22304 24.3446 2.23512 24.3568C2.25889 24.3806 7.90386 21.2821 8.00045 21.1922C8.03337 21.1616 7.92676 20.8808 7.75475 20.5449C5.24724 15.648 7.41605 9.72999 12.5894 7.35253C15.9362 5.81448 20.0516 6.1667 22.9787 8.24177C23.3256 8.48765 23.7055 8.73099 23.823 8.78247C24.0918 8.9003 24.4472 8.90221 24.7235 8.7873C24.9968 8.6736 28.3931 5.4116 28.4856 5.17398C28.6841 4.66368 28.5183 4.25427 27.9104 3.75401C25.4927 1.764 22.1613 0.406118 18.8296 0.0526323C18.2714 -0.0065993 15.9045 -0.0196772 15.3112 0.0332059Z" fill="#FFD500"/>
<path fill-rule="evenodd" clip-rule="evenodd" d="M15.3109 0.0332059C14.6943 0.0881205 13.3943 0.313937 12.6789 0.490299C10.3675 1.0602 7.96065 2.24496 6.11653 3.72036C5.28524 4.38549 4.14932 5.51724 3.51388 6.3136C2.88003 7.1078 2.2493 8.06039 2.31588 8.1228C2.37218 8.17562 7.89991 11.2254 8.01887 11.2693C8.06103 11.2848 8.22739 11.1027 8.38851 10.8645C9.37626 9.40437 10.9045 8.12674 12.5891 7.35253C15.936 5.81448 20.0514 6.1667 22.9785 8.24177C23.3253 8.48765 23.7053 8.73099 23.8228 8.78247C24.0916 8.9003 24.4469 8.90221 24.7232 8.7873C24.9965 8.6736 28.3929 5.4116 28.4854 5.17398C28.6839 4.66368 28.518 4.25427 27.9102 3.75401C25.4924 1.764 22.1611 0.406118 18.8294 0.0526323C18.2712 -0.0065993 15.9043 -0.0196772 15.3109 0.0332059Z" fill="#FF4B26"/>
<path fill-rule="evenodd" clip-rule="evenodd" d="M21.1862 0.464421C21.1862 0.481879 21.2012 0.496163 21.2194 0.496163C21.2377 0.496163 21.2526 0.481879 21.2526 0.464421C21.2526 0.446962 21.2377 0.432678 21.2194 0.432678C21.2012 0.432678 21.1862 0.446962 21.1862 0.464421ZM22.1156 0.718361C22.1156 0.73582 22.1306 0.750104 22.1488 0.750104C22.1671 0.750104 22.182 0.73582 22.182 0.718361C22.182 0.700903 22.1671 0.686619 22.1488 0.686619C22.1306 0.686619 22.1156 0.700903 22.1156 0.718361ZM8.37382 2.17852C8.37382 2.19598 8.38875 2.21026 8.40701 2.21026C8.42527 2.21026 8.4402 2.19598 8.4402 2.17852C8.4402 2.16106 8.42527 2.14678 8.40701 2.14678C8.38875 2.14678 8.37382 2.16106 8.37382 2.17852ZM6.78056 3.19428C6.78056 3.21174 6.7955 3.22602 6.81376 3.22602C6.83201 3.22602 6.84695 3.21174 6.84695 3.19428C6.84695 3.17682 6.83201 3.16254 6.81376 3.16254C6.7955 3.16254 6.78056 3.17682 6.78056 3.19428ZM6.51502 3.38474C6.51502 3.4022 6.52996 3.41648 6.54821 3.41648C6.56647 3.41648 6.58141 3.4022 6.58141 3.38474C6.58141 3.36728 6.56647 3.35299 6.54821 3.35299C6.52996 3.35299 6.51502 3.36728 6.51502 3.38474ZM6.18309 3.63868C6.18309 3.65614 6.19803 3.67042 6.21628 3.67042C6.23454 3.67042 6.24948 3.65614 6.24948 3.63868C6.24948 3.62122 6.23454 3.60694 6.21628 3.60694C6.19803 3.60694 6.18309 3.62122 6.18309 3.63868ZM4.19152 5.47975C4.19152 5.49721 4.20646 5.51149 4.22472 5.51149C4.24297 5.51149 4.25791 5.49721 4.25791 5.47975C4.25791 5.46229 4.24297 5.448 4.22472 5.448C4.20646 5.448 4.19152 5.46229 4.19152 5.47975ZM15.4107 6.49551C15.4107 6.51297 15.4256 6.52725 15.4439 6.52725C15.4621 6.52725 15.4771 6.51297 15.4771 6.49551C15.4771 6.47805 15.4621 6.46377 15.4439 6.46377C15.4256 6.46377 15.4107 6.47805 15.4107 6.49551ZM2.99658 6.9399C2.99658 6.95736 3.01152 6.97165 3.02977 6.97165C3.04803 6.97165 3.06297 6.95736 3.06297 6.9399C3.06297 6.92245 3.04803 6.90816 3.02977 6.90816C3.01152 6.90816 2.99658 6.92245 2.99658 6.9399ZM21.0535 7.19385C21.0535 7.2113 21.0684 7.22559 21.0867 7.22559C21.1049 7.22559 21.1199 7.2113 21.1199 7.19385C21.1199 7.17639 21.1049 7.1621 21.0867 7.1621C21.0684 7.1621 21.0535 7.17639 21.0535 7.19385ZM11.9586 7.63824C11.9586 7.6557 11.9736 7.66998 11.9918 7.66998C12.0101 7.66998 12.025 7.6557 12.025 7.63824C12.025 7.62078 12.0101 7.6065 11.9918 7.6065C11.9736 7.6065 11.9586 7.62078 11.9586 7.63824ZM23.1114 8.33658C23.1114 8.35404 23.1264 8.36832 23.1446 8.36832C23.1629 8.36832 23.1778 8.35404 23.1778 8.33658C23.1778 8.31912 23.1629 8.30484 23.1446 8.30484C23.1264 8.30484 23.1114 8.31912 23.1114 8.33658ZM10.4982 8.59052C10.4982 8.60798 10.5131 8.62226 10.5314 8.62226C10.5496 8.62226 10.5645 8.60798 10.5645 8.59052C10.5645 8.57306 10.5496 8.55878 10.5314 8.55878C10.5131 8.55878 10.4982 8.57306 10.4982 8.59052Z" fill="#FF0000"/>
</svg>
