<svg width="41" height="37" viewBox="0 0 41 37" fill="none" xmlns="http://www.w3.org/2000/svg">
<path d="M20.5002 0.583344C9.23016 0.583344 0.0834961 8.61001 0.0834961 18.5C0.0834961 28.39 9.23016 36.4167 20.5002 36.4167C31.7702 36.4167 40.9168 28.39 40.9168 18.5C40.9168 8.61001 31.7702 0.583344 20.5002 0.583344ZM20.5002 7.75001C24.4406 7.75001 27.646 10.5629 27.646 14.0208C27.646 17.4788 24.4406 20.2917 20.5002 20.2917C16.5597 20.2917 13.3543 17.4788 13.3543 14.0208C13.3543 10.5629 16.5597 7.75001 20.5002 7.75001ZM20.5002 32.8333C16.3556 32.8333 11.4556 31.3642 7.96433 27.6733C11.4147 25.3083 15.7635 23.875 20.5002 23.875C25.2368 23.875 29.5856 25.3083 33.036 27.6733C29.5447 31.3642 24.6447 32.8333 20.5002 32.8333Z" fill="#0000FF"/>
</svg>
